<?xml version="1.0" encoding="UTF-8" standalone="no"?>
<!-- Created with Inkscape (http://www.inkscape.org/) -->

<svg
   width="90mm"
   height="52mm"
   viewBox="0 0 90 52"
   version="1.1"
   id="svg1"
   inkscape:version="1.3 (0e150ed6c4, 2023-07-21)"
   sodipodi:docname="screen_rev.svg"
   xmlns:inkscape="http://www.inkscape.org/namespaces/inkscape"
   xmlns:sodipodi="http://sodipodi.sourceforge.net/DTD/sodipodi-0.dtd"
   xmlns:xlink="http://www.w3.org/1999/xlink"
   xmlns="http://www.w3.org/2000/svg"
   xmlns:svg="http://www.w3.org/2000/svg">
  <sodipodi:namedview
     id="namedview1"
     pagecolor="#ffffff"
     bordercolor="#000000"
     borderopacity="0.25"
     inkscape:showpageshadow="2"
     inkscape:pageopacity="0.0"
     inkscape:pagecheckerboard="0"
     inkscape:deskcolor="#d1d1d1"
     inkscape:document-units="mm"
     inkscape:zoom="1.9578168"
     inkscape:cx="164.7243"
     inkscape:cy="125.39478"
     inkscape:window-width="1920"
     inkscape:window-height="991"
     inkscape:window-x="-9"
     inkscape:window-y="-9"
     inkscape:window-maximized="1"
     inkscape:current-layer="layer4"
     showgrid="false">
    <inkscape:grid
       id="grid6"
       units="mm"
       originx="0"
       originy="0"
       spacingx="1"
       spacingy="1"
       empcolor="#0099e5"
       empopacity="0.30196078"
       color="#0099e5"
       opacity="0.14901961"
       empspacing="5"
       dotted="false"
       gridanglex="30"
       gridanglez="30"
       visible="false" />
  </sodipodi:namedview>
  <defs
     id="defs1">
    <linearGradient
       id="linearGradient22"
       inkscape:collect="always">
      <stop
         style="stop-color:#e0e0e0;stop-opacity:0.998236;"
         offset="0"
         id="stop22" />
      <stop
         style="stop-color:#ececec;stop-opacity:1;"
         offset="1"
         id="stop23" />
    </linearGradient>
    <rect
       x="-37.795275"
       y="11.338583"
       width="22.677165"
       height="22.677165"
       id="rect20" />
    <rect
       x="-37.795277"
       y="11.338583"
       width="22.677164"
       height="22.677164"
       id="rect20-6" />
    <rect
       x="-37.795277"
       y="11.338583"
       width="22.677164"
       height="22.677164"
       id="rect20-6-3" />
    <rect
       x="-37.795277"
       y="11.338583"
       width="22.677164"
       height="22.677164"
       id="rect20-6-3-7" />
    <rect
       x="-37.795277"
       y="11.338583"
       width="22.677164"
       height="22.677164"
       id="rect20-6-3-5" />
    <rect
       x="-37.795277"
       y="11.338583"
       width="22.677164"
       height="22.677164"
       id="rect20-6-3-5-4" />
    <rect
       x="-37.795277"
       y="11.338583"
       width="22.677164"
       height="22.677164"
       id="rect20-6-3-5-4-1" />
    <rect
       x="-37.795277"
       y="11.338583"
       width="22.677164"
       height="22.677164"
       id="rect20-6-3-5-4-1-9" />
    <rect
       x="-37.795277"
       y="11.338583"
       width="22.677164"
       height="22.677164"
       id="rect20-6-3-5-4-1-9-1" />
    <rect
       x="-37.795277"
       y="11.338583"
       width="22.677164"
       height="22.677164"
       id="rect20-6-3-5-4-1-9-2" />
    <rect
       x="-37.795277"
       y="11.338583"
       width="22.677164"
       height="22.677164"
       id="rect20-6-3-5-4-1-9-2-6" />
    <rect
       x="-37.795277"
       y="11.338583"
       width="22.677164"
       height="22.677164"
       id="rect20-6-3-5-4-1-9-2-6-8" />
    <rect
       x="-37.795277"
       y="11.338583"
       width="22.677164"
       height="22.677164"
       id="rect20-6-3-5-4-3" />
    <linearGradient
       inkscape:collect="always"
       xlink:href="#linearGradient22"
       id="linearGradient23"
       x1="42.96516"
       y1="64.712791"
       x2="107.01788"
       y2="99.984863"
       gradientUnits="userSpaceOnUse" />
  </defs>
  <g
     inkscape:label="Layer 1"
     inkscape:groupmode="layer"
     id="layer1"
     transform="matrix(-1,0,0,1,115.80212,-56.146114)">
    <rect
       style="fill:url(#linearGradient23);fill-opacity:0.998236;stroke-width:3.96875"
       id="rect1"
       width="90"
       height="52"
       x="25.802124"
       y="56.146114" />
  </g>
  <g
     inkscape:groupmode="layer"
     id="layer2"
     inkscape:label="lines vertical"
     style="display:inline"
     transform="matrix(-1,0,0,1,90,0)">
    <use
       x="0"
       y="0"
       xlink:href="#g6"
       id="use7"
       transform="translate(10)" />
    <use
       x="0"
       y="0"
       xlink:href="#use7"
       id="use8"
       transform="translate(10)" />
    <use
       x="0"
       y="0"
       xlink:href="#use8"
       id="use9"
       transform="translate(10)" />
    <use
       x="0"
       y="0"
       xlink:href="#use9"
       id="use10"
       transform="translate(10)" />
    <use
       x="0"
       y="0"
       xlink:href="#use10"
       id="use11"
       transform="translate(10)" />
    <use
       x="0"
       y="0"
       xlink:href="#use11"
       id="use12"
       transform="translate(10)" />
    <use
       x="0"
       y="0"
       xlink:href="#use12"
       id="use15"
       transform="translate(10)" />
    <use
       x="0"
       y="0"
       xlink:href="#use15"
       id="use16"
       transform="translate(10)" />
    <g
       id="g6"
       transform="translate(-0.12499994)"
       style="display:inline">
      <path
         style="fill:#e6e6e6;fill-opacity:0.998236;stroke:#000000;stroke-width:0.25;stroke-dasharray:none"
         d="M 5.1249998,11 V 3.4936523e-7"
         id="path1" />
      <use
         x="0"
         y="0"
         xlink:href="#path1"
         id="use4"
         transform="translate(0,41)" />
      <use
         x="0"
         y="0"
         xlink:href="#path1"
         id="use5"
         transform="translate(2e-7,13)" />
      <use
         x="0"
         y="0"
         xlink:href="#use5"
         id="use6"
         transform="translate(0,15)" />
    </g>
  </g>
  <g
     inkscape:groupmode="layer"
     id="layer3"
     inkscape:label="lines horizontal"
     style="display:inline"
     transform="matrix(-1,0,0,1,90,0)">
    <path
       style="fill:#e6e6e6;fill-opacity:0.998236;stroke:#000000;stroke-width:0.25;stroke-dasharray:none"
       d="M 3.9999999,16 H 90"
       id="path16"
       sodipodi:nodetypes="cc" />
    <use
       x="0"
       y="0"
       xlink:href="#path16"
       id="use17"
       transform="translate(-1.302807e-8,-10)" />
    <use
       x="0"
       y="0"
       xlink:href="#path16"
       id="use18"
       transform="translate(-1.3028175e-8,19.999999)" />
    <use
       x="0"
       y="0"
       xlink:href="#use18"
       id="use19"
       transform="translate(0,10)" />
    <path
       style="fill:#e6e6e6;fill-opacity:0.998236;stroke:#000000;stroke-width:0.261628;stroke-dasharray:none"
       d="m 0,26 h 2.9999999 m 3.9999999,0 H 13 m 4,0 h 5.999999 m 4,0 h 6 m 4,0 h 6 m 4,0 h 6.02377 m 3.977679,0 h 5.99855 m 4,0 h 6 m 4,0 h 6 m 4,0 h 3"
       id="use20"
       sodipodi:nodetypes="cccccccccccccccccccc" />
    <g
       id="g20" />
  </g>
  <g
     inkscape:groupmode="layer"
     id="layer4"
     inkscape:label="text"
     style="display:inline"
     transform="matrix(-1,0,0,1,90,0)">
    <g
       id="g21"
       inkscape:label="nums vertical">
      <path
         d="M 3.6949871,7.5185072 V 7.152638 L 2.6469892,5.7553072 Q 2.5560386,5.6354179 2.5064293,5.5072604 2.4547527,5.3791028 2.4547527,5.2654148 v -0.00414 q 0,-0.1798341 0.1054201,-0.2790529 0.1054197,-0.099219 0.2997231,-0.099219 0.1819011,0 0.2976563,0.1095541 0.1136883,0.107487 0.1384929,0.3059245 v 0.00206 h 0.436149 v -0.00206 Q 3.6763837,4.9098796 3.4490074,4.6969726 3.2216311,4.4819987 2.86403,4.4819987 q -0.4051432,0 -0.6263182,0.2046388 -0.2211752,0.2046385 -0.2211752,0.578776 v 0.00206 q 0,0.1591636 0.066146,0.3348633 0.066146,0.1736328 0.1839682,0.3327964 l 0.870231,1.1823567 H 2.0000001 V 7.518499 Z"
         id="text20"
         style="font-size:16px;font-family:Bahnschrift;-inkscape-font-specification:Bahnschrift;text-align:center;text-anchor:middle;white-space:pre;fill-opacity:0.998236;stroke-width:0.25"
         aria-label="2" />
      <path
         d="m 3.6949871,47.518253 v -0.36587 L 2.6469892,45.755053 Q 2.5560386,45.635163 2.5064293,45.507006 2.4547527,45.378848 2.4547527,45.26516 v -0.0041 q 0,-0.179834 0.1054201,-0.279053 0.1054197,-0.09922 0.2997231,-0.09922 0.1819011,0 0.2976563,0.109554 0.1136883,0.107487 0.1384929,0.305925 v 0.0021 h 0.436149 v -0.0021 Q 3.6763837,44.909625 3.4490074,44.696718 3.2216311,44.481744 2.86403,44.481744 q -0.4051432,0 -0.6263182,0.204639 -0.2211752,0.204638 -0.2211752,0.578776 v 0.0021 q 0,0.159163 0.066146,0.334863 0.066146,0.173633 0.1839682,0.332796 l 0.870231,1.182357 H 2.0000001 v 0.401009 z"
         id="text20-8"
         style="font-size:16px;font-family:Bahnschrift;-inkscape-font-specification:Bahnschrift;text-align:center;white-space:pre;fill-opacity:0.998236;stroke-width:0.25"
         aria-label="2" />
      <path
         d="m 2.4413161,14.497503 v 3.005502 H 2.8629958 V 14.95639 l 0.427881,0.262516 v -0.436149 l -0.427881,-0.285254 z"
         id="text20-8-5"
         style="font-size:16px;font-family:Bahnschrift;-inkscape-font-specification:Bahnschrift;text-align:center;white-space:pre;fill-opacity:0.998236;stroke-width:0.25"
         aria-label="1" />
      <path
         d="m 2.4413171,34.497248 v 3.005502 h 0.4216797 v -2.546615 l 0.427881,0.262516 v -0.436149 l -0.427881,-0.285254 z"
         id="text20-8-5-6"
         style="font-size:16px;font-family:Bahnschrift;-inkscape-font-specification:Bahnschrift;text-align:center;white-space:pre;fill-opacity:0.998236;stroke-width:0.25"
         aria-label="1" />
    </g>
    <g
       id="g22"
       inkscape:label="nums horizontal">
      <path
         d="m 15.468195,27.518254 -0.756543,-1.492416 0.0021,0.07441 q 0.05374,0.09715 0.159163,0.14056 0.10542,0.04341 0.243913,0.04341 0.324528,0 0.522965,-0.239778 0.198438,-0.241846 0.198438,-0.640788 v -0.0021 q 0,-0.438216 -0.219108,-0.677995 -0.221175,-0.241845 -0.620117,-0.241845 -0.398942,0 -0.61805,0.243912 -0.219108,0.241846 -0.219108,0.686263 v 0.0021 q 0,0.183968 0.05374,0.398942 0.05374,0.212907 0.157096,0.417546 l 0.640788,1.287776 z m -0.469222,-1.618506 q -0.198438,0 -0.305925,-0.134359 -0.109554,-0.134359 -0.109554,-0.378271 v -0.0021 q 0,-0.237712 0.109554,-0.367936 0.107487,-0.130225 0.305925,-0.130225 0.200504,0 0.310058,0.130225 0.107487,0.130224 0.107487,0.370003 v 0.0021 q 0,0.243913 -0.107487,0.378272 -0.109554,0.132291 -0.310058,0.132291 z"
         id="text20-8-5-8"
         style="font-size:16px;font-family:Bahnschrift;-inkscape-font-specification:Bahnschrift;text-align:center;white-space:pre;fill-opacity:0.998236;stroke-width:0.25"
         aria-label="9&#10;" />
      <path
         d="m 25,27.549259 q 0.274919,0 0.479557,-0.103352 0.204639,-0.103353 0.318327,-0.291455 0.113688,-0.188103 0.113688,-0.440284 v -0.04961 q 0,-0.225309 -0.111621,-0.423747 -0.113688,-0.198437 -0.30179,-0.299723 0.157096,-0.08682 0.254248,-0.250114 0.09715,-0.165364 0.09715,-0.347266 v -0.07235 q 0,-0.3576 -0.231511,-0.572574 Q 25.384473,24.481746 25,24.481746 q -0.384473,0 -0.615983,0.217042 -0.233578,0.214974 -0.233578,0.572574 v 0.07235 q 0,0.186036 0.09922,0.349333 0.09715,0.163298 0.258383,0.248047 -0.19017,0.101286 -0.303858,0.299723 -0.115755,0.198438 -0.115755,0.423747 v 0.04961 q 0,0.252181 0.113688,0.440284 0.113688,0.188102 0.318327,0.291455 Q 24.725081,27.549259 25,27.549259 Z m 0,-0.405143 q -0.221175,0 -0.355534,-0.12609 -0.136425,-0.128158 -0.136425,-0.334863 v -0.02894 q 0,-0.208773 0.136425,-0.334863 Q 24.778825,26.191203 25,26.191203 q 0.221175,0 0.357601,0.128158 0.134359,0.12609 0.134359,0.33693 v 0.03101 q 0,0.206705 -0.134359,0.332796 Q 25.221175,27.144116 25,27.144116 Z m 0,-1.358056 q -0.192236,0 -0.310058,-0.121957 -0.117823,-0.121956 -0.117823,-0.322461 v -0.02894 q 0,-0.192236 0.117823,-0.307991 Q 24.807764,24.88689 25,24.88689 q 0.192236,0 0.310059,0.117822 0.117822,0.115755 0.117822,0.310059 v 0.03101 q 0,0.198438 -0.117822,0.320394 Q 25.192236,25.78606 25,25.78606 Z"
         id="text20-8-5-8-2"
         style="font-size:16px;font-family:Bahnschrift;-inkscape-font-specification:Bahnschrift;text-align:center;white-space:pre;fill-opacity:0.998236;stroke-width:0.25"
         aria-label="8" />
      <path
         style="font-size:16px;font-family:Bahnschrift;-inkscape-font-specification:Bahnschrift;text-align:center;text-anchor:middle;white-space:pre;fill-opacity:0.998236;stroke-width:0.25"
         d="m 5.7741133,24.500349 v 3.005502 H 6.195793 v -2.546615 l 0.4278807,0.262516 V 24.785603 L 6.195793,24.500349 Z m -1.5399578,3.036507 q 0.4299479,0 0.6449219,-0.229443 0.212907,-0.23151 0.212907,-0.624251 v -1.366325 q 0,-0.398942 -0.2170411,-0.626318 -0.2170409,-0.227377 -0.6407878,-0.227377 -0.4258138,0 -0.6407878,0.227377 -0.2170408,0.225309 -0.2170408,0.626318 v 1.366325 q 0,0.398942 0.2170408,0.626318 0.214974,0.227376 0.6407878,0.227376 z m 0,-0.401009 q -0.2315104,0 -0.3327961,-0.119889 -0.1033529,-0.121956 -0.1033529,-0.332796 v -1.366325 q 0,-0.212907 0.1033529,-0.332796 0.1012857,-0.119889 0.3327961,-0.119889 0.2315104,0 0.3348633,0.119889 0.1012859,0.119889 0.1012859,0.332796 v 1.366325 q 0,0.21084 -0.1012859,0.332796 -0.1033529,0.119889 -0.3348633,0.119889 z"
         id="text20-8-5-8-2-7"
         aria-label="10" />
      <path
         style="font-size:16px;font-family:Bahnschrift;-inkscape-font-specification:Bahnschrift;text-align:center;text-anchor:middle;white-space:pre;fill-opacity:0.998236;stroke-width:0.25"
         d="m 34.161807,24.497249 v 0.376205 l 0.777214,2.629297 h 0.448551 l -0.777213,-2.604492 h 0.764811 v 0.432014 h 0.42168 v -0.833024 z"
         id="text20-8-5-8-2-9"
         aria-label="7" />
      <path
         style="font-size:16px;font-family:Bahnschrift;-inkscape-font-specification:Bahnschrift;text-align:center;text-anchor:middle;white-space:pre;fill-opacity:0.998236;stroke-width:0.25"
         d="m 45.001029,27.533756 q 0.398942,0 0.61805,-0.237711 0.219108,-0.237712 0.219108,-0.669727 v -0.0021 q 0,-0.194304 -0.05374,-0.411345 -0.05374,-0.219108 -0.155029,-0.421679 l -0.65319,-1.293978 h -0.454753 l 0.766878,1.498616 -0.0021,-0.07441 q -0.107486,-0.204638 -0.382405,-0.204638 -0.353467,0 -0.54777,0.235644 -0.194304,0.233578 -0.194304,0.661459 v 0.0021 q 0,0.43615 0.219108,0.677995 0.219108,0.239779 0.620118,0.239779 z m 0,-0.405143 q -0.202571,0 -0.310058,-0.124023 -0.107487,-0.124024 -0.107487,-0.353467 v -0.0021 q 0,-0.252181 0.113688,-0.388606 0.113688,-0.138493 0.324528,-0.138493 0.188102,0 0.291455,0.138493 0.103353,0.138493 0.103353,0.390674 v 0.0021 q 0,0.229444 -0.107487,0.353467 -0.109554,0.121956 -0.307992,0.121956 z"
         id="text20-8-5-8-2-9-2"
         aria-label="6" />
      <path
         style="font-size:16px;font-family:Bahnschrift;-inkscape-font-specification:Bahnschrift;text-align:center;text-anchor:middle;white-space:pre;fill-opacity:0.998236;stroke-width:0.25"
         d="m 55.0031,27.588879 q 0.343131,0 0.564306,-0.19637 0.219108,-0.198437 0.274919,-0.558105 v -0.0021 h -0.42168 v 0.0021 q -0.02274,0.165364 -0.132292,0.258382 -0.109553,0.09095 -0.285253,0.09095 -0.202572,0 -0.312126,-0.134358 -0.111621,-0.136426 -0.111621,-0.382406 v -0.252181 q 0,-0.24598 0.111621,-0.380339 0.109554,-0.134358 0.312126,-0.134358 0.109554,0 0.210839,0.06201 0.101286,0.06201 0.177767,0.173632 h 0.384473 V 24.552372 H 54.24449 v 0.40101 h 1.110009 v 0.675927 q -0.07855,-0.06408 -0.175699,-0.09922 -0.09715,-0.03514 -0.198438,-0.03514 -0.392741,0 -0.607715,0.241845 -0.214974,0.239779 -0.214974,0.677995 v 0.252181 q 0,0.440283 0.221175,0.682129 0.221175,0.239778 0.624252,0.239778 z"
         id="text20-8-5-8-2-9-2-2"
         aria-label="5" />
      <path
         style="font-size:16px;font-family:Bahnschrift;-inkscape-font-specification:Bahnschrift;text-align:center;text-anchor:middle;white-space:pre;fill-opacity:0.998236;stroke-width:0.25"
         d="m 65.997353,27.041797 v -0.365869 l -1.008724,-2.176612 h -0.434082 l 0.983919,2.151807 h -1.473811 v 0.390674 z m -1.296045,0.463021 v -1.769401 h -0.411344 v 1.769401 z"
         id="text20-8-5-8-2-9-2-8"
         aria-label="4" />
      <path
         d="m 74.98036,27.533756 q 0.254249,0 0.446485,-0.09095 0.190169,-0.09302 0.305924,-0.26665 0.115756,-0.173633 0.148828,-0.42168 v 0 H 75.45165 v 0 q -0.02894,0.194303 -0.152963,0.285254 -0.124023,0.08888 -0.318327,0.08888 -0.208772,0 -0.324527,-0.111621 -0.115756,-0.111621 -0.115756,-0.314193 v -0.09095 q 0,-0.225309 0.109554,-0.347266 0.109554,-0.124023 0.310059,-0.124023 h 0.212907 V 25.739551 H 74.95969 q -0.177767,0 -0.272852,-0.10542 -0.09715,-0.10542 -0.09715,-0.297656 v -0.09302 q 0,-0.177767 0.103353,-0.274918 0.101285,-0.09715 0.289388,-0.09715 0.159163,0 0.270784,0.09095 0.109554,0.08888 0.150895,0.283187 v 0 h 0.427881 v 0 q -0.06408,-0.37207 -0.285254,-0.574642 -0.223242,-0.204639 -0.564306,-0.204639 -0.388607,0 -0.601514,0.204639 -0.212907,0.204639 -0.212907,0.576709 v 0.04961 q 0,0.22531 0.121956,0.392741 0.121957,0.165365 0.345199,0.243913 -0.24598,0.05168 -0.380339,0.241846 -0.136425,0.188102 -0.136425,0.479557 v 0.04961 q 0,0.394807 0.225309,0.611849 0.225309,0.21704 0.636653,0.21704 z"
         id="text20-8-5-8-2-9-2-8-0"
         style="font-size:16px;font-family:Bahnschrift;-inkscape-font-specification:Bahnschrift;text-align:center;white-space:pre;fill-opacity:0.998236;stroke-width:0.25"
         aria-label="3" />
      <path
         d="m 85.880564,27.502751 v -0.36587 l -1.047998,-1.39733 q -0.09095,-0.11989 -0.14056,-0.248047 -0.05168,-0.128158 -0.05168,-0.241846 v -0.0041 q 0,-0.179834 0.10542,-0.279053 0.105419,-0.09922 0.299723,-0.09922 0.181901,0 0.297656,0.109554 0.113688,0.107487 0.138493,0.305925 v 0.0021 h 0.436149 v -0.0021 q -0.05581,-0.388607 -0.283187,-0.601514 -0.227376,-0.214974 -0.584977,-0.214974 -0.405143,0 -0.626318,0.204639 -0.221176,0.204638 -0.221176,0.578776 v 0.0021 q 0,0.159163 0.06615,0.334863 0.06615,0.173633 0.183969,0.332796 l 0.870231,1.182357 h -1.136882 v 0.401009 z"
         id="text20-8-5-8-2-9-2-8-0-9"
         style="font-size:16px;font-family:Bahnschrift;-inkscape-font-specification:Bahnschrift;text-align:center;white-space:pre;fill-opacity:0.998236;stroke-width:0.25"
         aria-label="2" />
    </g>
  </g>
</svg>
